<svg width="34" height="34" viewBox="0 0 34 34" fill="none" xmlns="http://www.w3.org/2000/svg">
<g clip-path="url(#clip0_19_5)">
<path d="M18.4167 34H15.5833C14.4117 34 13.4583 33.0466 13.4583 31.875V29.2372C12.5516 28.9751 11.677 28.6123 10.851 28.1555L8.98521 30.022C8.18196 30.8252 6.783 30.8238 5.97975 30.022L3.97587 28.0188C3.57425 27.6179 3.35325 27.0838 3.35325 26.5165C3.35325 25.9491 3.57425 25.415 3.97587 25.0141L5.84233 23.1469C5.38558 22.3216 5.02323 21.4474 4.76213 20.541H2.125C0.953417 20.541 0 19.5875 0 18.416V15.5826C0 15.0145 0.221 14.4812 0.621917 14.0802C0.818906 13.8823 1.05316 13.7254 1.31115 13.6185C1.56914 13.5117 1.84575 13.457 2.125 13.4576H4.76283C5.02492 12.5524 5.38617 11.679 5.84375 10.8517L3.978 8.98521C3.57997 8.58653 3.35641 8.04619 3.35641 7.48283C3.35641 6.91947 3.57997 6.37914 3.978 5.98046L5.98117 3.97658C6.78371 3.17475 8.18338 3.17333 8.98662 3.97658L10.8531 5.84304C11.6785 5.3869 12.5523 5.02458 13.4583 4.76283V2.125C13.4583 0.953417 14.4117 0 15.5833 0H18.4167C19.5882 0 20.5417 0.953417 20.5417 2.125V4.76283C21.4483 5.02492 22.321 5.38687 23.1469 5.84304L25.0134 3.97658C25.8166 3.17475 27.2156 3.17333 28.0188 3.97658L30.0227 5.97975C30.4243 6.38067 30.6453 6.91475 30.6453 7.48212C30.6453 8.0495 30.4243 8.58358 30.0227 8.9845L28.157 10.851C28.6139 11.6766 28.9765 12.551 29.2379 13.4576H31.875C33.0466 13.4576 34 14.411 34 15.5826V18.416C34 18.984 33.779 19.5174 33.3781 19.9183C32.9772 20.3193 32.4431 20.541 31.875 20.541H29.2372C28.9753 21.4475 28.6127 22.3218 28.1562 23.1476L30.022 25.0141C30.42 25.4128 30.6436 25.9531 30.6436 26.5165C30.6436 27.0798 30.42 27.6202 30.022 28.0188L28.0188 30.0227C27.2156 30.8252 25.8166 30.8252 25.0134 30.0227L23.1483 28.1562C22.3227 28.6126 21.4486 28.9752 20.5424 29.2372V31.875C20.5414 32.4384 20.3172 32.9785 19.9187 33.3768C19.5202 33.7752 18.9801 33.9992 18.4167 34ZM10.7362 26.5611C10.863 26.5611 10.9912 26.5951 11.1053 26.6645C12.1048 27.2765 13.1939 27.7284 14.3331 28.004C14.4876 28.0413 14.625 28.1295 14.7233 28.2544C14.8216 28.3792 14.875 28.5335 14.875 28.6925V31.875C14.875 32.266 15.193 32.5833 15.5833 32.5833H18.4167C18.807 32.5833 19.125 32.266 19.125 31.875V28.6925C19.125 28.5335 19.1784 28.3792 19.2767 28.2544C19.375 28.1295 19.5124 28.0413 19.6669 28.004C20.8058 27.7286 21.8946 27.2769 22.894 26.6652C23.1745 26.4945 23.533 26.5377 23.7646 26.7686L26.0157 29.0204C26.2813 29.2853 26.7516 29.2868 27.018 29.0204L29.0211 27.0165C29.1539 26.8837 29.2285 26.7036 29.2285 26.5157C29.2285 26.3279 29.1539 26.1478 29.0211 26.015L26.7693 23.7632C26.6569 23.6507 26.5855 23.5037 26.5668 23.3458C26.548 23.1879 26.5829 23.0283 26.6659 22.8926C27.2775 21.8933 27.729 20.8044 28.004 19.6655C28.0412 19.5109 28.1293 19.3733 28.2542 19.2749C28.3791 19.1764 28.5335 19.1229 28.6925 19.1229H31.875C31.968 19.1232 32.0602 19.1052 32.1462 19.0699C32.2322 19.0345 32.3104 18.9824 32.3762 18.9167C32.442 18.851 32.4942 18.773 32.5298 18.687C32.5653 18.6011 32.5835 18.509 32.5833 18.416V15.5826C32.5833 15.1916 32.2653 14.8743 31.875 14.8743H28.6925C28.5334 14.8744 28.379 14.8209 28.2541 14.7224C28.1292 14.624 28.041 14.4864 28.004 14.3317C27.7291 13.1928 27.2776 12.1039 26.6659 11.1045C26.5829 10.9689 26.548 10.8093 26.5668 10.6514C26.5855 10.4934 26.6569 10.3464 26.7693 10.234L29.0211 7.98221C29.1529 7.84975 29.2287 7.66771 29.2287 7.48142C29.2287 7.29513 29.1529 7.11237 29.0211 6.98062L27.0172 4.97746C26.882 4.84896 26.7026 4.7773 26.5161 4.7773C26.3296 4.7773 26.1502 4.84896 26.015 4.97746L23.7632 7.22925C23.6511 7.34226 23.504 7.414 23.3459 7.43278C23.1879 7.45156 23.0281 7.41627 22.8926 7.33267C21.8937 6.72127 20.8053 6.26981 19.6669 5.99463C19.5125 5.95768 19.375 5.86978 19.2767 5.74512C19.1784 5.62046 19.1249 5.46631 19.125 5.30754V2.125C19.125 1.734 18.807 1.41667 18.4167 1.41667H15.5833C15.193 1.41667 14.875 1.734 14.875 2.125V5.30754C14.875 5.46645 14.8216 5.62075 14.7233 5.74562C14.625 5.8705 14.4876 5.9587 14.3331 5.99604C13.1943 6.27119 12.1054 6.72265 11.106 7.33408C10.9705 7.41713 10.8109 7.4521 10.6531 7.43334C10.4953 7.41457 10.3484 7.34317 10.2361 7.23067L7.98433 4.97887C7.84912 4.85037 7.66972 4.77872 7.48319 4.77872C7.29666 4.77872 7.11725 4.85037 6.98204 4.97887L4.97958 6.98204C4.84679 7.11487 4.77219 7.29501 4.77219 7.48283C4.77219 7.67066 4.84679 7.85079 4.97958 7.98362L7.23137 10.2354C7.34383 10.3479 7.41518 10.4949 7.43394 10.6528C7.4527 10.8107 7.41777 10.9703 7.33479 11.106C6.72325 12.1051 6.27177 13.1937 5.99675 14.3324C5.95954 14.487 5.8714 14.6246 5.74651 14.723C5.62163 14.8214 5.46726 14.875 5.30825 14.875H2.125C2.03194 14.8746 1.93972 14.8927 1.85365 14.9281C1.76759 14.9635 1.68939 15.0156 1.62355 15.0814C1.55771 15.1472 1.50553 15.2253 1.47003 15.3113C1.43452 15.3974 1.41639 15.4896 1.41667 15.5826V18.416C1.41667 18.807 1.73471 19.1243 2.125 19.1243H5.30754C5.63479 19.1243 5.91954 19.3481 5.99604 19.6669C6.27118 20.8055 6.72264 21.8942 7.33408 22.8933C7.41707 23.029 7.45199 23.1886 7.43323 23.3465C7.41447 23.5044 7.34312 23.6514 7.23067 23.7639L4.97887 26.0164C4.84712 26.1488 4.77133 26.3309 4.77133 26.5172C4.77133 26.7035 4.84712 26.8862 4.97887 27.018L6.98275 29.0211C7.11796 29.1496 7.29736 29.2213 7.4839 29.2213C7.67043 29.2213 7.84983 29.1496 7.98504 29.0211L10.2361 26.7693C10.3015 26.7032 10.3794 26.6507 10.4652 26.615C10.5511 26.5792 10.6432 26.5609 10.7362 26.5611Z" fill="black"/>
<path d="M17 24.0834C13.0943 24.0834 9.91669 20.9058 9.91669 17C9.91669 13.0943 13.0943 9.91669 17 9.91669C20.9058 9.91669 24.0834 13.0943 24.0834 17C24.0834 20.9058 20.9065 24.0834 17 24.0834ZM17 11.3334C13.8756 11.3334 11.3334 13.8756 11.3334 17C11.3334 20.1245 13.8756 22.6667 17 22.6667C20.1245 22.6667 22.6667 20.1245 22.6667 17C22.6667 13.8756 20.1252 11.3334 17 11.3334Z" fill="black"/>
</g>
<defs>
<clipPath id="clip0_19_5">
<rect width="34" height="34" fill="white"/>
</clipPath>
</defs>
</svg>
