<svg width="36" height="36" viewBox="0 0 36 36" fill="none" xmlns="http://www.w3.org/2000/svg">
<path d="M22.6348 2.87887C20.0234 2.13375 17.2959 3.6445 16.5508 6.25582L16.1611 7.62301C15.9082 8.51168 15.4502 9.332 14.8281 10.0156L11.3213 13.8711C10.7129 14.541 10.7607 15.58 11.4307 16.1884C12.1006 16.7968 13.1396 16.749 13.748 16.0791L17.2549 12.2236C18.2188 11.164 18.9229 9.89938 19.3125 8.52536L19.7021 7.15817C19.9482 6.29 20.8574 5.78415 21.7324 6.03024C22.6074 6.27633 23.1064 7.18551 22.8604 8.06051L22.4707 9.4277C22.0811 10.7881 21.4658 12.0732 20.6523 13.2216C20.2969 13.7207 20.2559 14.3769 20.5361 14.9238C20.8164 15.4707 21.377 15.8125 21.9922 15.8125H31.125C31.7266 15.8125 32.2188 16.3047 32.2188 16.9062C32.2188 17.3711 31.9248 17.7744 31.5078 17.9316C31.002 18.123 30.6191 18.5468 30.4893 19.0732C30.3594 19.5996 30.4961 20.1533 30.8516 20.5566C31.0225 20.748 31.125 21.0009 31.125 21.2812C31.125 21.8144 30.7422 22.2588 30.2363 22.3545C29.6758 22.4638 29.2041 22.8535 29.0059 23.3935C28.8076 23.9336 28.8965 24.5351 29.252 24.9863C29.3955 25.1709 29.4844 25.4033 29.4844 25.6631C29.4844 26.1211 29.1973 26.5244 28.7871 26.6816C28.001 26.9892 27.5771 27.8369 27.8027 28.6504C27.8301 28.7392 27.8438 28.8418 27.8438 28.9443C27.8438 29.5459 27.3516 30.0381 26.75 30.0381H20.085C19.2236 30.0381 18.376 29.7851 17.6582 29.3066L13.4404 26.497C12.6885 25.9912 11.6699 26.1963 11.1641 26.955C10.6582 27.7138 10.8633 28.7256 11.6221 29.2314L15.8398 32.041C17.0977 32.8818 18.5742 33.3261 20.085 33.3261H26.75C29.1221 33.3261 31.0498 31.4394 31.125 29.0879C32.123 28.2881 32.7656 27.0576 32.7656 25.6699C32.7656 25.3623 32.7314 25.0683 32.6768 24.7812C33.7295 23.9814 34.4062 22.7168 34.4062 21.2949C34.4062 20.8506 34.3379 20.4199 34.2148 20.0166C35.0078 19.2099 35.5 18.1162 35.5 16.9062C35.5 14.4931 33.5449 12.5312 31.125 12.5312H24.8154C25.1367 11.8203 25.4102 11.082 25.6221 10.33L26.0117 8.96286C26.7568 6.35153 25.2461 3.62399 22.6348 2.87887ZM2.6875 13.625C1.47754 13.625 0.5 14.6025 0.5 15.8125V31.125C0.5 32.3349 1.47754 33.3125 2.6875 33.3125H7.0625C8.27246 33.3125 9.25 32.3349 9.25 31.125V15.8125C9.25 14.6025 8.27246 13.625 7.0625 13.625H2.6875Z" fill="white"/>
</svg>
