<svg width="34" height="34" viewBox="0 0 34 34" fill="none" xmlns="http://www.w3.org/2000/svg">
<path d="M24.0833 18.4167L18.4167 31.1667C17.2895 31.1667 16.2085 30.7189 15.4115 29.9219C14.6144 29.1248 14.1667 28.0438 14.1667 26.9167V21.25H6.14835C5.73764 21.2547 5.33084 21.17 4.95612 21.0018C4.5814 20.8336 4.24772 20.586 3.97821 20.276C3.7087 19.9661 3.5098 19.6013 3.39528 19.2068C3.28077 18.8124 3.25338 18.3977 3.31501 17.9917L5.27001 5.24167C5.37247 4.56605 5.71565 3.95023 6.23631 3.50766C6.75698 3.0651 7.42005 2.82561 8.10335 2.83334H24.0833M24.0833 18.4167V2.83334M24.0833 18.4167H27.8658C28.6676 18.4308 29.4467 18.1501 30.0552 17.6278C30.6637 17.1055 31.0592 16.378 31.1667 15.5833V5.66667C31.0592 4.872 30.6637 4.14446 30.0552 3.62216C29.4467 3.09986 28.6676 2.81916 27.8658 2.83334H24.0833" stroke="#018ABC" stroke-width="2" stroke-linecap="round" stroke-linejoin="round"/>
</svg>
