<svg width="66" height="30" viewBox="0 0 66 30" fill="none" xmlns="http://www.w3.org/2000/svg">
<rect x="2" y="7" width="64" height="17" rx="8.5" fill="#A2559C"/>
<circle cx="15" cy="15" r="14.5" fill="white" stroke="#A2559C"/>
<g clip-path="url(#clip0_129_2)">
<path d="M18.9263 17.8125C17.7832 17.8123 16.6562 17.5441 15.6355 17.0296C14.6148 16.5151 13.729 15.7685 13.049 14.8497C12.369 13.931 11.9138 12.8657 11.7199 11.7392C11.526 10.6127 11.5988 9.45651 11.9325 8.36328C10.8249 8.87382 9.8626 9.65341 9.13335 10.631C8.4041 11.6086 7.93106 12.7531 7.75733 13.9603C7.58359 15.1675 7.71469 16.399 8.13868 17.5426C8.56266 18.6861 9.26605 19.7054 10.1848 20.5076C11.1035 21.3098 12.2083 21.8693 13.3986 22.1352C14.5889 22.4011 15.8268 22.365 16.9995 22.03C18.1723 21.6951 19.2426 21.0721 20.1129 20.2177C20.9833 19.3632 21.626 18.3046 21.9825 17.1383C21.0248 17.5824 19.9819 17.8124 18.9263 17.8125Z" stroke="#A2559C" stroke-width="1.5" stroke-linecap="round" stroke-linejoin="round"/>
<path d="M14.9888 8.8125H18.3638" stroke="#A2559C" stroke-width="1.5" stroke-linecap="round" stroke-linejoin="round"/>
<path d="M16.6763 7.125V10.5" stroke="#A2559C" stroke-width="1.5" stroke-linecap="round" stroke-linejoin="round"/>
<path d="M20.0513 12.1875H22.3013" stroke="#A2559C" stroke-width="1.5" stroke-linecap="round" stroke-linejoin="round"/>
<path d="M21.1763 11.0625V13.3125" stroke="#A2559C" stroke-width="1.5" stroke-linecap="round" stroke-linejoin="round"/>
</g>
<defs>
<clipPath id="clip0_129_2">
<rect width="18" height="18" fill="white" transform="translate(6 6)"/>
</clipPath>
</defs>
</svg>
